HIERARCHY
ROOT pelvis
{
	OFFSET 0.000000 0.000000 0.882079
	CHANNELS 6 Xposition Yposition Zposition Xrotation Yrotation Zrotation
	JOINT spine
	{
		OFFSET 0.000000 0.000000 0.000000
		CHANNELS 6 Xposition Yposition Zposition Xrotation Yrotation Zrotation
		JOINT spine.001
		{
			OFFSET 0.000000 -0.015905 0.303483
			CHANNELS 3 Xrotation Yrotation Zrotation
			JOINT neck
			{
				OFFSET 0.000000 0.037036 0.301635
				CHANNELS 6 Xposition Yposition Zposition Xrotation Yrotation Zrotation
				JOINT face
				{
					OFFSET 0.000000 0.003871 0.221748
					CHANNELS 6 Xposition Yposition Zposition Xrotation Yrotation Zrotation
					End Site
					{
						OFFSET 0.000000 -0.029348 -0.009041
					}
				}
			}
			JOINT shoulder.L
			{
				OFFSET 0.000000 0.037036 0.301635
				CHANNELS 6 Xposition Yposition Zposition Yrotation Xrotation Zrotation
				JOINT upper_arm.L
				{
					OFFSET 0.183720 0.000000 0.000000
					CHANNELS 6 Xposition Yposition Zposition Xrotation Yrotation Zrotation
					JOINT forearm.L
					{
						OFFSET 0.305529 0.000134 0.001107
						CHANNELS 6 Xposition Yposition Zposition Xrotation Yrotation Zrotation
						End Site
						{
							OFFSET 0.264376 -0.004492 -0.001524
						}
					}
				}
			}
			JOINT shoulder.R
			{
				OFFSET 0.000000 0.037036 0.301635
				CHANNELS 6 Xposition Yposition Zposition Yrotation Xrotation Zrotation
				JOINT upper_arm.R
				{
					OFFSET -0.183720 0.000000 0.000000
					CHANNELS 6 Xposition Yposition Zposition Xrotation Yrotation Zrotation
					JOINT forearm.R
					{
						OFFSET -0.304723 0.000134 0.001107
						CHANNELS 6 Xposition Yposition Zposition Xrotation Yrotation Zrotation
						End Site
						{
							OFFSET -0.258955 -0.004398 -0.001524
						}
					}
				}
			}
		}
	}
	JOINT pelvis.L
	{
		OFFSET 0.000000 0.000000 0.000000
		CHANNELS 6 Xposition Yposition Zposition Yrotation Xrotation Zrotation
		End Site
		{
			OFFSET 0.116517 0.000000 0.000000
		}
	}
	JOINT pelvis.R
	{
		OFFSET 0.000000 0.000000 0.000000
		CHANNELS 6 Xposition Yposition Zposition Yrotation Xrotation Zrotation
		End Site
		{
			OFFSET -0.116517 0.000000 0.000000
		}
	}
	JOINT thigh.L
	{
		OFFSET 0.116517 0.000000 0.000000
		CHANNELS 6 Xposition Yposition Zposition Xrotation Yrotation Zrotation
		JOINT shin.L
		{
			OFFSET 0.021507 0.000000 -0.410370
			CHANNELS 6 Xposition Yposition Zposition Xrotation Yrotation Zrotation
			JOINT foot.L
			{
				OFFSET 0.019741 0.000000 -0.376673
				CHANNELS 3 Xrotation Yrotation Zrotation
				End Site
				{
					OFFSET 0.019080 -0.194546 -0.081693
				}
			}
			JOINT heel.02.L
			{
				OFFSET 0.019741 0.000000 -0.376673
				CHANNELS 3 Xrotation Yrotation Zrotation
				End Site
				{
					OFFSET 0.101978 0.039825 -0.088740
				}
			}
		}
	}
	JOINT thigh.R
	{
		OFFSET -0.116517 0.000000 0.000000
		CHANNELS 6 Xposition Yposition Zposition Xrotation Yrotation Zrotation
		JOINT shin.R
		{
			OFFSET -0.022070 0.000000 -0.421124
			CHANNELS 6 Xposition Yposition Zposition Xrotation Yrotation Zrotation
			JOINT foot.R
			{
				OFFSET -0.020130 0.000000 -0.384108
				CHANNELS 3 Xrotation Yrotation Zrotation
				End Site
				{
					OFFSET -0.020033 -0.204259 -0.085772
				}
			}
			JOINT heel.02.R
			{
				OFFSET -0.020130 0.000000 -0.384108
				CHANNELS 3 Xrotation Yrotation Zrotation
				End Site
				{
					OFFSET -0.095682 0.039825 -0.070830
				}
			}
		}
	}
}
MOTION
Frames: 4
Frame Time: 0.041667
0.026913 -0.021964 0.866942 -0.000000 0.000000 1.396126 0.000000 0.000000 -0.000000 -8.411161 0.688048 0.086990 9.981667 0.506893 4.131830 -0.000000 0.037036 0.301635 15.564780 -1.329313 -7.638044 0.000000 0.003871 0.221748 4.644842 0.000000 -0.000002 -0.000000 0.037036 0.301635 0.653460 0.000458 -0.080273 0.183720 0.000000 -0.000000 11.332518 75.830871 -14.542303 0.305529 0.000134 0.001107 2.420685 10.953912 -24.309167 0.000000 0.037036 0.301635 0.707218 0.000536 -0.086884 -0.183720 -0.000000 0.000000 9.978761 -75.769904 12.830904 -0.304723 0.000134 0.001107 2.677200 -16.161831 17.441049 0.000000 -0.000000 -0.000000 1.733440 0.000001 -0.000067 0.000000 -0.000000 -0.000000 1.733440 -0.000000 0.000000 0.116464 -0.000000 -0.003525 6.199631 -0.016861 0.326136 0.021507 0.000000 -0.410370 -1.277812 3.430452 -0.028749 -7.601989 -3.297877 5.025800 -9.886525 48.189857 34.760328 -0.116464 -0.000000 0.003525 6.399269 0.661739 -0.372600 -0.022070 -0.000000 -0.421124 2.106546 1.988633 -0.146844 -14.656374 2.556990 -1.768422 -13.591510 -45.460158 -37.466552 
0.028600 -0.023714 0.866645 -0.000000 -0.000000 1.670216 0.000000 -0.000000 0.000000 -8.712831 0.438406 0.056600 9.976703 0.571185 4.657130 0.000000 0.037036 0.301635 16.222275 -1.280601 -7.929358 0.000000 0.003871 0.221748 4.087554 -0.000000 -0.000001 -0.000000 0.037036 0.301635 0.576500 0.000357 -0.070791 0.183720 -0.000000 -0.000000 12.915949 75.890778 -16.539639 0.305529 0.000134 0.001107 2.365511 11.503777 -22.457665 -0.000000 0.037036 0.301635 0.630258 0.000425 -0.077415 -0.183720 0.000000 -0.000000 7.887102 -75.867569 10.140509 -0.304723 0.000134 0.001107 2.605981 -15.651916 17.571558 0.000000 -0.000000 0.000000 1.376667 -0.000001 0.000042 0.000000 -0.000000 0.000000 1.376637 -0.000000 0.000000 0.116484 0.000000 -0.002799 6.477645 0.376110 0.318611 0.021507 -0.000000 -0.410370 -1.361948 2.953147 -0.036320 -7.521920 -3.194531 4.846470 -8.718878 47.693657 35.027160 -0.116484 -0.000000 0.002799 6.700237 0.936344 -0.406182 -0.022070 0.000000 -0.421124 1.850966 1.557737 -0.122092 -13.674979 2.787231 -2.396895 -15.389331 -47.107197 -39.848597 
0.029517 -0.024603 0.866671 -0.000000 0.000000 1.853804 0.000000 0.000000 0.000000 -8.968727 0.252700 0.033198 9.970477 0.643912 5.251756 0.000000 0.037036 0.301635 16.909298 -1.315797 -8.335799 0.000000 0.003871 0.221748 3.522038 -0.000000 -0.000001 -0.000000 0.037036 0.301634 0.413399 0.000184 -0.050779 0.183720 -0.000000 -0.000000 14.757773 75.948015 -18.856826 0.305529 0.000134 0.001107 2.297002 11.803556 -21.142581 -0.000000 0.037036 0.301635 0.467121 0.000235 -0.057352 -0.183720 0.000000 0.000000 5.718718 -75.807976 7.377631 -0.304723 0.000134 0.001107 2.590352 -15.347563 17.855832 0.000000 -0.000000 0.000000 1.104784 -0.000000 -0.000003 0.000000 -0.000000 0.000000 1.104813 0.000000 0.000000 0.116496 0.000000 -0.002247 6.660837 0.643623 0.312110 0.021507 0.000000 -0.410370 -1.424995 2.618451 -0.042167 -7.409774 -3.114796 4.723240 -7.960734 47.397852 35.261746 -0.116496 -0.000000 0.002247 6.837151 1.072443 -0.422602 -0.022070 0.000000 -0.421124 1.775416 1.309839 -0.113281 -12.885896 2.944947 -2.869875 -16.756658 -48.175947 -41.363977 
0.029623 -0.024643 0.867027 -0.000000 0.000000 1.957773 -0.000000 0.000000 0.000000 -9.168460 0.136890 0.018227 9.962837 0.721491 5.886670 0.000000 0.037036 0.301635 17.599478 -1.433377 -8.818534 -0.000000 0.003871 0.221748 2.981642 -0.000000 0.000002 0.000000 0.037036 0.301635 0.181372 0.000036 -0.022335 0.183720 0.000000 0.000000 16.584084 76.020156 -21.138527 0.305529 0.000134 0.001107 2.250854 11.875753 -20.545451 0.000000 0.037036 0.301635 0.235094 0.000060 -0.028895 -0.183720 -0.000000 0.000000 3.683886 -75.623185 4.787386 -0.304723 0.000134 0.001107 2.618533 -15.228643 18.230108 -0.000000 -0.000000 0.000000 0.914504 0.000000 -0.000019 -0.000000 -0.000000 0.000000 0.914475 0.000000 0.000000 0.116502 0.000000 -0.001860 6.761775 0.778201 0.308917 0.021507 0.000000 -0.410370 -1.525277 2.428599 -0.047661 -7.203657 -3.044039 4.646210 -7.571986 47.284317 35.460945 -0.116502 -0.000000 0.001860 6.817205 1.061566 -0.420721 -0.022070 -0.000000 -0.421124 1.876888 1.252051 -0.118814 -12.340672 3.037718 -3.175523 -17.269322 -48.473497 -41.578271 
